<svg width="64" height="64" viewBox="0 0 64 64" fill="none" xmlns="http://www.w3.org/2000/svg">
<rect x="2.5" y="2.5" width="59" height="59" rx="29.5" stroke="white" stroke-width="5"/>
<mask id="path-2-inside-1_140_2846" fill="white">
<path fill-rule="evenodd" clip-rule="evenodd" d="M41.9999 18.1765C36.5702 20.4523 32.7598 25.7847 32.7598 32C32.7598 38.2153 36.5702 43.5477 41.9999 45.8235C40.1924 46.5811 38.2055 47 36.12 47C27.7695 47 21 40.2843 21 32C21 23.7157 27.7695 17 36.12 17C38.2055 17 40.1924 17.4189 41.9999 18.1765Z"/>
</mask>
<path fill-rule="evenodd" clip-rule="evenodd" d="M41.9999 18.1765C36.5702 20.4523 32.7598 25.7847 32.7598 32C32.7598 38.2153 36.5702 43.5477 41.9999 45.8235C40.1924 46.5811 38.2055 47 36.12 47C27.7695 47 21 40.2843 21 32C21 23.7157 27.7695 17 36.12 17C38.2055 17 40.1924 17.4189 41.9999 18.1765Z" fill="white"/>
<path d="M41.9999 18.1765L42.3864 19.0987L44.5868 18.1765L42.3864 17.2542L41.9999 18.1765ZM41.9999 45.8235L42.3864 46.7458L44.5868 45.8235L42.3864 44.9013L41.9999 45.8235ZM33.7598 32C33.7598 26.2053 37.3118 21.2257 42.3864 19.0987L41.6133 17.2542C35.8285 19.6789 31.7598 25.3641 31.7598 32H33.7598ZM42.3864 44.9013C37.3118 42.7743 33.7598 37.7947 33.7598 32H31.7598C31.7598 38.6359 35.8285 44.3211 41.6133 46.7458L42.3864 44.9013ZM41.6133 44.9013C39.9262 45.6084 38.0706 46 36.12 46V48C38.3405 48 40.4586 47.5538 42.3864 46.7458L41.6133 44.9013ZM36.12 46C28.3142 46 22 39.7245 22 32H20C20 40.8441 27.2247 48 36.12 48V46ZM22 32C22 24.2755 28.3142 18 36.12 18V16C27.2247 16 20 23.1559 20 32H22ZM36.12 18C38.0706 18 39.9262 18.3916 41.6133 19.0987L42.3864 17.2542C40.4586 16.4462 38.3405 16 36.12 16V18Z" fill="white" mask="url(#path-2-inside-1_140_2846)"/>
</svg>
