<svg width="64" height="64" viewBox="0 0 64 64" fill="none" xmlns="http://www.w3.org/2000/svg">
<rect x="2.5" y="2.5" width="59" height="59" rx="29.5" stroke="white" stroke-width="5"/>
<path fill-rule="evenodd" clip-rule="evenodd" d="M33.161 14.4033C32.7612 13.8656 31.9559 13.8656 31.5561 14.4033L26.6835 20.9563C26.519 21.1775 26.2704 21.3211 25.9966 21.3529L17.8852 22.2962C17.2196 22.3736 16.817 23.0709 17.0828 23.6861L20.3215 31.1824C20.4309 31.4355 20.4309 31.7225 20.3215 31.9756L17.0828 39.4718C16.817 40.087 17.2196 40.7843 17.8852 40.8618L25.9966 41.805C26.2704 41.8369 26.519 41.9804 26.6835 42.2016L31.5561 48.7546C31.9559 49.2924 32.7612 49.2924 33.161 48.7546L38.0336 42.2016C38.1981 41.9804 38.4467 41.8369 38.7206 41.805L46.8319 40.8618C47.4975 40.7843 47.9001 40.087 47.6344 39.4718L44.3956 31.9756C44.2862 31.7225 44.2862 31.4355 44.3956 31.1824L47.6344 23.6861C47.9001 23.0709 47.4975 22.3736 46.8319 22.2962L38.7206 21.3529C38.4467 21.3211 38.1981 21.1775 38.0336 20.9563L33.161 14.4033ZM32.36 40.0979C37.0649 40.0979 40.879 36.2838 40.879 31.5789C40.879 26.8741 37.0649 23.06 32.36 23.06C27.6551 23.06 23.8411 26.8741 23.8411 31.5789C23.8411 36.2838 27.6551 40.0979 32.36 40.0979Z" fill="white"/>
</svg>
