<?xml version="1.0" standalone="no"?>
<!DOCTYPE svg PUBLIC "-//W3C//DTD SVG 20010904//EN"
 "http://www.w3.org/TR/2001/REC-SVG-20010904/DTD/svg10.dtd">
<svg version="1.0" xmlns="http://www.w3.org/2000/svg"
 width="400.000000pt" height="400.000000pt" viewBox="0 0 400.000000 400.000000"
 preserveAspectRatio="xMidYMid meet">
<metadata>
Created by potrace 1.14, written by Peter Selinger 2001-2017
</metadata>
<g transform="translate(0.000000,400.000000) scale(0.100000,-0.100000)"
fill="#000000" stroke="none">
<path d="M0 2000 l0 -2000 2000 0 2000 0 0 2000 0 2000 -2000 0 -2000 0 0
-2000z m1762 1486 c35 -13 119 -42 188 -65 180 -58 247 -80 320 -106 119 -42
224 -77 271 -90 l46 -13 17 32 c72 132 96 166 122 172 52 13 70 -41 36 -106
-30 -56 -63 -113 -83 -142 -11 -14 -19 -30 -19 -35 0 -4 -12 -26 -27 -48 -15
-22 -45 -74 -66 -115 -22 -41 -45 -82 -52 -90 -7 -8 -22 -33 -34 -55 -12 -22
-33 -58 -45 -80 -24 -42 -75 -131 -100 -176 l-15 -27 262 2 262 1 135 -34
c189 -48 292 -94 404 -180 90 -69 196 -181 196 -205 0 -5 8 -20 18 -34 24 -36
57 -124 72 -191 20 -85 7 -238 -28 -341 -32 -96 -87 -214 -108 -231 -8 -6 -14
-16 -14 -21 0 -14 -104 -141 -168 -206 -73 -74 -223 -192 -337 -268 -112 -73
-113 -74 -166 -103 -24 -13 -55 -31 -69 -41 -14 -9 -70 -41 -125 -70 -55 -29
-104 -56 -110 -60 -5 -4 -25 -12 -44 -18 -30 -11 -43 -8 -120 22 -47 19 -126
49 -176 67 -49 17 -119 43 -155 58 -84 34 -140 34 -210 -1 -186 -93 -466 -186
-641 -213 -289 -44 -507 1 -635 132 -73 74 -88 113 -88 223 -1 95 11 137 50
180 72 79 96 101 144 131 99 62 172 83 346 99 106 10 155 9 279 -3 l150 -15
17 21 c10 12 28 42 41 67 13 25 40 75 61 112 l36 68 -182 -7 c-161 -5 -200 -3
-323 17 -151 24 -265 62 -350 116 -117 75 -197 199 -210 324 -20 214 80 383
288 483 l97 47 0 40 c0 100 53 242 138 371 85 128 170 222 392 433 51 49 232
196 241 196 5 0 37 -11 71 -24z"/>
<path d="M1471 3129 c-41 -10 -86 -27 -99 -36 -13 -10 -35 -25 -47 -33 -70
-47 -124 -135 -139 -225 -13 -77 27 -194 86 -252 47 -46 129 -83 206 -95 86
-12 318 -3 542 23 96 11 175 21 176 22 0 1 11 17 23 35 13 18 35 54 49 80 14
26 36 65 48 87 13 22 37 65 53 96 l29 55 -44 27 c-25 15 -48 27 -51 27 -4 0
-34 13 -67 28 -195 91 -322 135 -459 161 -133 26 -210 26 -306 0z"/>
<path d="M878 2343 c-51 -45 -98 -134 -98 -188 0 -56 45 -148 91 -185 45 -36
116 -68 209 -96 58 -17 98 -19 392 -18 243 0 331 4 342 13 8 7 23 29 33 49 11
20 30 55 44 77 23 39 45 76 70 123 7 12 10 24 8 25 -2 2 -71 -2 -154 -9 -204
-18 -438 -17 -559 1 -93 14 -116 21 -176 56 -42 24 -106 95 -130 143 -12 25
-23 46 -25 46 -2 0 -23 -17 -47 -37z"/>
<path d="M2355 2190 c-248 -27 -261 -30 -279 -64 -9 -17 -27 -49 -40 -71 -13
-22 -35 -62 -50 -89 -14 -27 -31 -55 -37 -63 -7 -7 -9 -16 -6 -20 4 -3 64 2
134 10 215 27 517 41 632 28 179 -19 309 -104 377 -245 23 -49 28 -71 27 -135
0 -66 -5 -84 -32 -136 -42 -78 -100 -146 -166 -195 -30 -22 -56 -40 -59 -40
-3 0 -21 -11 -41 -24 -20 -14 -98 -55 -173 -92 -75 -36 -152 -74 -169 -82
l-33 -16 58 -18 c168 -50 258 -78 292 -92 37 -15 39 -14 79 14 22 17 43 30 46
30 3 0 40 28 83 62 203 164 313 315 353 483 34 148 18 307 -43 406 -15 25 -28
51 -28 58 0 6 -4 11 -9 11 -5 0 -17 13 -28 29 -26 41 -128 121 -202 160 -68
34 -186 72 -285 90 -66 12 -292 12 -401 1z"/>
<path d="M2238 1545 c-75 -13 -198 -28 -275 -35 -76 -6 -164 -14 -197 -18 -64
-8 -58 -2 -136 -142 -17 -30 -42 -75 -55 -99 -14 -24 -24 -45 -22 -47 1 -1 48
-12 104 -23 137 -27 386 -97 546 -154 107 -37 131 -31 308 76 241 146 310 342
155 440 -41 26 -48 27 -167 26 -77 -1 -176 -10 -261 -24z"/>
<path d="M905 919 c-80 -10 -161 -42 -210 -84 -39 -33 -40 -36 -40 -100 0 -60
3 -68 30 -93 17 -15 59 -41 95 -57 59 -26 77 -29 206 -33 131 -4 149 -2 270
27 151 37 261 71 359 113 105 44 165 72 165 78 0 17 -372 105 -545 129 -187
25 -254 29 -330 20z"/>
</g>
</svg>
